<?xml version="1.0" encoding="UTF-8" standalone="no"?>
<!DOCTYPE svg PUBLIC "-//W3C//DTD SVG 1.1//EN"
 "http://www.w3.org/Graphics/SVG/1.1/DTD/svg11.dtd">
<!-- Generated by graphviz version 12.2.1 (20241206.2353)
 -->
<!-- Title: YOLOspine Pages: 1 -->
<svg width="340pt" height="1407pt"
 viewBox="14.40 14.40 326.02 1392.40" xmlns="http://www.w3.org/2000/svg" xmlns:xlink="http://www.w3.org/1999/xlink">
<g id="graph0" class="graph" transform="scale(1 1) rotate(0) translate(18.4 1388.4)">
<title>YOLOspine</title>
<polygon fill="white" stroke="none" points="-4,4 -4,-1374 307.62,-1374 307.62,4 -4,4"/>
<!-- Input -->
<g id="node1" class="node">
<title>Input</title>
<path fill="lightblue" stroke="black" d="M233.38,-1370C233.38,-1370 163.38,-1370 163.38,-1370 157.38,-1370 151.38,-1364 151.38,-1358 151.38,-1358 151.38,-1346 151.38,-1346 151.38,-1340 157.38,-1334 163.38,-1334 163.38,-1334 233.38,-1334 233.38,-1334 239.38,-1334 245.38,-1340 245.38,-1346 245.38,-1346 245.38,-1358 245.38,-1358 245.38,-1364 239.38,-1370 233.38,-1370"/>
<text text-anchor="middle" x="198.38" y="-1354.5" font-family="Arial" font-size="10.00">Input</text>
<text text-anchor="middle" x="198.38" y="-1342.5" font-family="Arial" font-size="10.00">384x384x3 (RGB)</text>
</g>
<!-- Conv1 -->
<g id="node2" class="node">
<title>Conv1</title>
<path fill="lightcyan" stroke="black" d="M237.88,-1312C237.88,-1312 158.88,-1312 158.88,-1312 152.88,-1312 146.88,-1306 146.88,-1300 146.88,-1300 146.88,-1288 146.88,-1288 146.88,-1282 152.88,-1276 158.88,-1276 158.88,-1276 237.88,-1276 237.88,-1276 243.88,-1276 249.88,-1282 249.88,-1288 249.88,-1288 249.88,-1300 249.88,-1300 249.88,-1306 243.88,-1312 237.88,-1312"/>
<text text-anchor="middle" x="198.38" y="-1296.5" font-family="Arial" font-size="10.00">Conv2D</text>
<text text-anchor="middle" x="198.38" y="-1284.5" font-family="Arial" font-size="10.00">3x3, 64 filters, SiLU</text>
</g>
<!-- Input&#45;&gt;Conv1 -->
<g id="edge1" class="edge">
<title>Input&#45;&gt;Conv1</title>
<path fill="none" stroke="black" d="M198.38,-1333.65C198.38,-1333.65 198.38,-1321.65 198.38,-1321.65"/>
<polygon fill="black" stroke="black" points="198.38,-1313.65 201.98,-1321.65 198.38,-1316.43 198.38,-1321.65 198.38,-1321.65 198.38,-1321.65 198.38,-1316.43 194.78,-1321.65 198.38,-1313.65"/>
</g>
<!-- Pool1 -->
<g id="node3" class="node">
<title>Pool1</title>
<path fill="lightcyan" stroke="black" d="M213.5,-1254C213.5,-1254 183.25,-1254 183.25,-1254 177.25,-1254 171.25,-1248 171.25,-1242 171.25,-1242 171.25,-1230 171.25,-1230 171.25,-1224 177.25,-1218 183.25,-1218 183.25,-1218 213.5,-1218 213.5,-1218 219.5,-1218 225.5,-1224 225.5,-1230 225.5,-1230 225.5,-1242 225.5,-1242 225.5,-1248 219.5,-1254 213.5,-1254"/>
<text text-anchor="middle" x="198.38" y="-1238.5" font-family="Arial" font-size="10.00">MaxPool</text>
<text text-anchor="middle" x="198.38" y="-1226.5" font-family="Arial" font-size="10.00">2x2</text>
</g>
<!-- Conv1&#45;&gt;Pool1 -->
<g id="edge2" class="edge">
<title>Conv1&#45;&gt;Pool1</title>
<path fill="none" stroke="black" d="M198.38,-1275.65C198.38,-1275.65 198.38,-1263.65 198.38,-1263.65"/>
<polygon fill="black" stroke="black" points="198.38,-1255.65 201.98,-1263.65 198.38,-1258.43 198.38,-1263.65 198.38,-1263.65 198.38,-1263.65 198.38,-1258.43 194.78,-1263.65 198.38,-1255.65"/>
</g>
<!-- C3_1 -->
<g id="node4" class="node">
<title>C3_1</title>
<path fill="lightcyan" stroke="black" d="M249.88,-1196C249.88,-1196 146.88,-1196 146.88,-1196 140.88,-1196 134.88,-1190 134.88,-1184 134.88,-1184 134.88,-1172 134.88,-1172 134.88,-1166 140.88,-1160 146.88,-1160 146.88,-1160 249.88,-1160 249.88,-1160 255.88,-1160 261.88,-1166 261.88,-1172 261.88,-1172 261.88,-1184 261.88,-1184 261.88,-1190 255.88,-1196 249.88,-1196"/>
<text text-anchor="middle" x="198.38" y="-1180.5" font-family="Arial" font-size="10.00">C3 Block</text>
<text text-anchor="middle" x="198.38" y="-1168.5" font-family="Arial" font-size="10.00">192x192x128, SiLU, Skip</text>
</g>
<!-- Pool1&#45;&gt;C3_1 -->
<g id="edge3" class="edge">
<title>Pool1&#45;&gt;C3_1</title>
<path fill="none" stroke="black" d="M198.38,-1217.65C198.38,-1217.65 198.38,-1205.65 198.38,-1205.65"/>
<polygon fill="black" stroke="black" points="198.38,-1197.65 201.98,-1205.65 198.38,-1200.43 198.38,-1205.65 198.38,-1205.65 198.38,-1205.65 198.38,-1200.43 194.78,-1205.65 198.38,-1197.65"/>
</g>
<!-- Pool2 -->
<g id="node5" class="node">
<title>Pool2</title>
<path fill="lightcyan" stroke="black" d="M213.5,-1138C213.5,-1138 183.25,-1138 183.25,-1138 177.25,-1138 171.25,-1132 171.25,-1126 171.25,-1126 171.25,-1114 171.25,-1114 171.25,-1108 177.25,-1102 183.25,-1102 183.25,-1102 213.5,-1102 213.5,-1102 219.5,-1102 225.5,-1108 225.5,-1114 225.5,-1114 225.5,-1126 225.5,-1126 225.5,-1132 219.5,-1138 213.5,-1138"/>
<text text-anchor="middle" x="198.38" y="-1122.5" font-family="Arial" font-size="10.00">MaxPool</text>
<text text-anchor="middle" x="198.38" y="-1110.5" font-family="Arial" font-size="10.00">2x2</text>
</g>
<!-- C3_1&#45;&gt;Pool2 -->
<g id="edge4" class="edge">
<title>C3_1&#45;&gt;Pool2</title>
<path fill="none" stroke="black" d="M198.38,-1159.65C198.38,-1159.65 198.38,-1147.65 198.38,-1147.65"/>
<polygon fill="black" stroke="black" points="198.38,-1139.65 201.98,-1147.65 198.38,-1142.43 198.38,-1147.65 198.38,-1147.65 198.38,-1147.65 198.38,-1142.43 194.78,-1147.65 198.38,-1139.65"/>
</g>
<!-- C3_2 -->
<g id="node6" class="node">
<title>C3_2</title>
<path fill="lightcyan" stroke="black" d="M244.62,-1080C244.62,-1080 152.12,-1080 152.12,-1080 146.12,-1080 140.12,-1074 140.12,-1068 140.12,-1068 140.12,-1056 140.12,-1056 140.12,-1050 146.12,-1044 152.12,-1044 152.12,-1044 244.62,-1044 244.62,-1044 250.62,-1044 256.62,-1050 256.62,-1056 256.62,-1056 256.62,-1068 256.62,-1068 256.62,-1074 250.62,-1080 244.62,-1080"/>
<text text-anchor="middle" x="198.38" y="-1064.5" font-family="Arial" font-size="10.00">C3 Block</text>
<text text-anchor="middle" x="198.38" y="-1052.5" font-family="Arial" font-size="10.00">96x96x256, SiLU, Skip</text>
</g>
<!-- Pool2&#45;&gt;C3_2 -->
<g id="edge5" class="edge">
<title>Pool2&#45;&gt;C3_2</title>
<path fill="none" stroke="black" d="M198.38,-1101.65C198.38,-1101.65 198.38,-1089.65 198.38,-1089.65"/>
<polygon fill="black" stroke="black" points="198.38,-1081.65 201.98,-1089.65 198.38,-1084.43 198.38,-1089.65 198.38,-1089.65 198.38,-1089.65 198.38,-1084.43 194.78,-1089.65 198.38,-1081.65"/>
</g>
<!-- Pool3_P3 -->
<g id="node7" class="node">
<title>Pool3_P3</title>
<path fill="palegreen" stroke="forestgreen" stroke-width="2" d="M228.5,-1022C228.5,-1022 168.25,-1022 168.25,-1022 162.25,-1022 156.25,-1016 156.25,-1010 156.25,-1010 156.25,-998 156.25,-998 156.25,-992 162.25,-986 168.25,-986 168.25,-986 228.5,-986 228.5,-986 234.5,-986 240.5,-992 240.5,-998 240.5,-998 240.5,-1010 240.5,-1010 240.5,-1016 234.5,-1022 228.5,-1022"/>
<text text-anchor="middle" x="198.38" y="-1006.5" font-family="Arial" font-size="10.00">MaxPool</text>
<text text-anchor="middle" x="198.38" y="-994.5" font-family="Arial" font-size="10.00">48x48x256 (P3)</text>
</g>
<!-- C3_2&#45;&gt;Pool3_P3 -->
<g id="edge6" class="edge">
<title>C3_2&#45;&gt;Pool3_P3</title>
<path fill="none" stroke="black" d="M198.38,-1043.65C198.38,-1043.65 198.38,-1032.05 198.38,-1032.05"/>
<polygon fill="black" stroke="black" points="198.38,-1024.05 201.98,-1032.05 198.38,-1026.83 198.38,-1032.05 198.38,-1032.05 198.38,-1032.05 198.38,-1026.83 194.78,-1032.05 198.38,-1024.05"/>
</g>
<!-- RELAN1 -->
<g id="node8" class="node">
<title>RELAN1</title>
<path fill="lightcyan" stroke="black" d="M204.62,-964C204.62,-964 112.12,-964 112.12,-964 106.12,-964 100.12,-958 100.12,-952 100.12,-952 100.12,-940 100.12,-940 100.12,-934 106.12,-928 112.12,-928 112.12,-928 204.62,-928 204.62,-928 210.62,-928 216.62,-934 216.62,-940 216.62,-940 216.62,-952 216.62,-952 216.62,-958 210.62,-964 204.62,-964"/>
<text text-anchor="middle" x="158.38" y="-948.5" font-family="Arial" font-size="10.00">R&#45;ELAN</text>
<text text-anchor="middle" x="158.38" y="-936.5" font-family="Arial" font-size="10.00">48x48x256, SiLU, Skip</text>
</g>
<!-- Pool3_P3&#45;&gt;RELAN1 -->
<g id="edge7" class="edge">
<title>Pool3_P3&#45;&gt;RELAN1</title>
<path fill="none" stroke="black" d="M186.44,-985.01C186.44,-985.01 186.44,-973.66 186.44,-973.66"/>
<polygon fill="black" stroke="black" points="186.44,-965.66 190.04,-973.66 186.44,-968.44 186.44,-973.66 186.44,-973.66 186.44,-973.66 186.44,-968.44 182.84,-973.66 186.44,-965.66"/>
</g>
<!-- P3_lat -->
<g id="node19" class="node">
<title>P3_lat</title>
<path fill="lavender" stroke="black" d="M260,-906C260,-906 220.75,-906 220.75,-906 214.75,-906 208.75,-900 208.75,-894 208.75,-894 208.75,-882 208.75,-882 208.75,-876 214.75,-870 220.75,-870 220.75,-870 260,-870 260,-870 266,-870 272,-876 272,-882 272,-882 272,-894 272,-894 272,-900 266,-906 260,-906"/>
<text text-anchor="middle" x="240.38" y="-890.5" font-family="Arial" font-size="10.00">P3</text>
<text text-anchor="middle" x="240.38" y="-878.5" font-family="Arial" font-size="10.00">48x48x256</text>
</g>
<!-- Pool3_P3&#45;&gt;P3_lat -->
<g id="edge20" class="edge">
<title>Pool3_P3&#45;&gt;P3_lat</title>
<path fill="none" stroke="black" d="M228.56,-985.1C228.56,-985.1 228.56,-915.34 228.56,-915.34"/>
<polygon fill="black" stroke="black" points="228.56,-907.34 232.16,-915.34 228.56,-910.12 228.56,-915.34 228.56,-915.34 228.56,-915.34 228.56,-910.12 224.96,-915.34 228.56,-907.34"/>
</g>
<!-- Pool4 -->
<g id="node9" class="node">
<title>Pool4</title>
<path fill="lightcyan" stroke="black" d="M170.5,-906C170.5,-906 140.25,-906 140.25,-906 134.25,-906 128.25,-900 128.25,-894 128.25,-894 128.25,-882 128.25,-882 128.25,-876 134.25,-870 140.25,-870 140.25,-870 170.5,-870 170.5,-870 176.5,-870 182.5,-876 182.5,-882 182.5,-882 182.5,-894 182.5,-894 182.5,-900 176.5,-906 170.5,-906"/>
<text text-anchor="middle" x="155.38" y="-890.5" font-family="Arial" font-size="10.00">MaxPool</text>
<text text-anchor="middle" x="155.38" y="-878.5" font-family="Arial" font-size="10.00">2x2</text>
</g>
<!-- RELAN1&#45;&gt;Pool4 -->
<g id="edge8" class="edge">
<title>RELAN1&#45;&gt;Pool4</title>
<path fill="none" stroke="black" d="M155.38,-927.65C155.38,-927.65 155.38,-915.65 155.38,-915.65"/>
<polygon fill="black" stroke="black" points="155.38,-907.65 158.98,-915.65 155.38,-910.43 155.38,-915.65 155.38,-915.65 155.38,-915.65 155.38,-910.43 151.78,-915.65 155.38,-907.65"/>
</g>
<!-- RELAN2_P4 -->
<g id="node10" class="node">
<title>RELAN2_P4</title>
<path fill="palegreen" stroke="forestgreen" stroke-width="2" d="M207.12,-848C207.12,-848 93.62,-848 93.62,-848 87.62,-848 81.62,-842 81.62,-836 81.62,-836 81.62,-824 81.62,-824 81.62,-818 87.62,-812 93.62,-812 93.62,-812 207.12,-812 207.12,-812 213.12,-812 219.12,-818 219.12,-824 219.12,-824 219.12,-836 219.12,-836 219.12,-842 213.12,-848 207.12,-848"/>
<text text-anchor="middle" x="150.38" y="-832.5" font-family="Arial" font-size="10.00">R&#45;ELAN</text>
<text text-anchor="middle" x="150.38" y="-820.5" font-family="Arial" font-size="10.00">24x24x512 (P4), SiLU, Skip</text>
</g>
<!-- Pool4&#45;&gt;RELAN2_P4 -->
<g id="edge9" class="edge">
<title>Pool4&#45;&gt;RELAN2_P4</title>
<path fill="none" stroke="black" d="M155.38,-869.65C155.38,-869.65 155.38,-858.05 155.38,-858.05"/>
<polygon fill="black" stroke="black" points="155.38,-850.05 158.98,-858.05 155.38,-852.83 155.38,-858.05 155.38,-858.05 155.38,-858.05 155.38,-852.83 151.78,-858.05 155.38,-850.05"/>
</g>
<!-- Pool5_P5 -->
<g id="node11" class="node">
<title>Pool5_P5</title>
<path fill="palegreen" stroke="forestgreen" stroke-width="2" d="M181.5,-790C181.5,-790 121.25,-790 121.25,-790 115.25,-790 109.25,-784 109.25,-778 109.25,-778 109.25,-766 109.25,-766 109.25,-760 115.25,-754 121.25,-754 121.25,-754 181.5,-754 181.5,-754 187.5,-754 193.5,-760 193.5,-766 193.5,-766 193.5,-778 193.5,-778 193.5,-784 187.5,-790 181.5,-790"/>
<text text-anchor="middle" x="151.38" y="-774.5" font-family="Arial" font-size="10.00">MaxPool</text>
<text text-anchor="middle" x="151.38" y="-762.5" font-family="Arial" font-size="10.00">12x12x512 (P5)</text>
</g>
<!-- RELAN2_P4&#45;&gt;Pool5_P5 -->
<g id="edge10" class="edge">
<title>RELAN2_P4&#45;&gt;Pool5_P5</title>
<path fill="none" stroke="black" d="M151.38,-811.01C151.38,-811.01 151.38,-800.05 151.38,-800.05"/>
<polygon fill="black" stroke="black" points="151.38,-792.05 154.98,-800.05 151.38,-794.84 151.38,-800.05 151.38,-800.05 151.38,-800.05 151.38,-794.84 147.78,-800.05 151.38,-792.05"/>
</g>
<!-- P4_lat -->
<g id="node14" class="node">
<title>P4_lat</title>
<path fill="lavender" stroke="black" d="M60,-732C60,-732 20.75,-732 20.75,-732 14.75,-732 8.75,-726 8.75,-720 8.75,-720 8.75,-708 8.75,-708 8.75,-702 14.75,-696 20.75,-696 20.75,-696 60,-696 60,-696 66,-696 72,-702 72,-708 72,-708 72,-720 72,-720 72,-726 66,-732 60,-732"/>
<text text-anchor="middle" x="40.38" y="-716.5" font-family="Arial" font-size="10.00">P4</text>
<text text-anchor="middle" x="40.38" y="-704.5" font-family="Arial" font-size="10.00">24x24x512</text>
</g>
<!-- RELAN2_P4&#45;&gt;P4_lat -->
<g id="edge14" class="edge">
<title>RELAN2_P4&#45;&gt;P4_lat</title>
<path fill="none" stroke="black" d="M80.71,-830C58.88,-830 40.38,-830 40.38,-830 40.38,-830 40.38,-741.6 40.38,-741.6"/>
<polygon fill="black" stroke="black" points="40.38,-733.6 43.98,-741.6 40.38,-736.38 40.38,-741.6 40.38,-741.6 40.38,-741.6 40.38,-736.38 36.78,-741.6 40.38,-733.6"/>
</g>
<!-- P5_conv -->
<g id="node12" class="node">
<title>P5_conv</title>
<path fill="lavender" stroke="black" d="M206.88,-732C206.88,-732 97.88,-732 97.88,-732 91.88,-732 85.88,-726 85.88,-720 85.88,-720 85.88,-708 85.88,-708 85.88,-702 91.88,-696 97.88,-696 97.88,-696 206.88,-696 206.88,-696 212.88,-696 218.88,-702 218.88,-708 218.88,-708 218.88,-720 218.88,-720 218.88,-726 212.88,-732 206.88,-732"/>
<text text-anchor="middle" x="152.38" y="-716.5" font-family="Arial" font-size="10.00">P5</text>
<text text-anchor="middle" x="152.38" y="-704.5" font-family="Arial" font-size="10.00">12x12x512, Conv2D, SiLU</text>
</g>
<!-- Pool5_P5&#45;&gt;P5_conv -->
<g id="edge11" class="edge">
<title>Pool5_P5&#45;&gt;P5_conv</title>
<path fill="none" stroke="black" d="M151.38,-753.01C151.38,-753.01 151.38,-741.66 151.38,-741.66"/>
<polygon fill="black" stroke="black" points="151.38,-733.66 154.98,-741.66 151.38,-736.44 151.38,-741.66 151.38,-741.66 151.38,-741.66 151.38,-736.44 147.78,-741.66 151.38,-733.66"/>
</g>
<!-- Upsample1 -->
<g id="node13" class="node">
<title>Upsample1</title>
<path fill="lavender" stroke="black" d="M159,-674C159,-674 119.75,-674 119.75,-674 113.75,-674 107.75,-668 107.75,-662 107.75,-662 107.75,-650 107.75,-650 107.75,-644 113.75,-638 119.75,-638 119.75,-638 159,-638 159,-638 165,-638 171,-644 171,-650 171,-650 171,-662 171,-662 171,-668 165,-674 159,-674"/>
<text text-anchor="middle" x="139.38" y="-658.5" font-family="Arial" font-size="10.00">Upsample</text>
<text text-anchor="middle" x="139.38" y="-646.5" font-family="Arial" font-size="10.00">24x24x512</text>
</g>
<!-- P5_conv&#45;&gt;Upsample1 -->
<g id="edge12" class="edge">
<title>P5_conv&#45;&gt;Upsample1</title>
<path fill="none" stroke="black" d="M139.38,-695.65C139.38,-695.65 139.38,-683.65 139.38,-683.65"/>
<polygon fill="black" stroke="black" points="139.38,-675.65 142.98,-683.65 139.38,-678.43 139.38,-683.65 139.38,-683.65 139.38,-683.65 139.38,-678.43 135.78,-683.65 139.38,-675.65"/>
</g>
<!-- Concat1 -->
<g id="node15" class="node">
<title>Concat1</title>
<path fill="lavender" stroke="black" d="M144.62,-616C144.62,-616 100.12,-616 100.12,-616 94.12,-616 88.12,-610 88.12,-604 88.12,-604 88.12,-592 88.12,-592 88.12,-586 94.12,-580 100.12,-580 100.12,-580 144.62,-580 144.62,-580 150.62,-580 156.62,-586 156.62,-592 156.62,-592 156.62,-604 156.62,-604 156.62,-610 150.62,-616 144.62,-616"/>
<text text-anchor="middle" x="122.38" y="-600.5" font-family="Arial" font-size="10.00">Concat</text>
<text text-anchor="middle" x="122.38" y="-588.5" font-family="Arial" font-size="10.00">24x24x1024</text>
</g>
<!-- Upsample1&#45;&gt;Concat1 -->
<g id="edge13" class="edge">
<title>Upsample1&#45;&gt;Concat1</title>
<path fill="none" stroke="black" d="M132.19,-637.65C132.19,-637.65 132.19,-625.65 132.19,-625.65"/>
<polygon fill="black" stroke="black" points="132.19,-617.65 135.79,-625.65 132.19,-620.43 132.19,-625.65 132.19,-625.65 132.19,-625.65 132.19,-620.43 128.59,-625.65 132.19,-617.65"/>
</g>
<!-- P4_lat&#45;&gt;Concat1 -->
<g id="edge15" class="edge">
<title>P4_lat&#45;&gt;Concat1</title>
<path fill="none" stroke="black" d="M68.06,-695.62C68.06,-662.91 68.06,-598 68.06,-598 68.06,-598 78.45,-598 78.45,-598"/>
<polygon fill="black" stroke="black" points="86.45,-598 78.45,-601.6 83.67,-598 78.45,-598 78.45,-598 78.45,-598 83.67,-598 78.45,-594.4 86.45,-598"/>
</g>
<!-- RELAN_neck1 -->
<g id="node16" class="node">
<title>RELAN_neck1</title>
<path fill="lavender" stroke="black" d="M168.62,-558C168.62,-558 76.12,-558 76.12,-558 70.12,-558 64.12,-552 64.12,-546 64.12,-546 64.12,-534 64.12,-534 64.12,-528 70.12,-522 76.12,-522 76.12,-522 168.62,-522 168.62,-522 174.62,-522 180.62,-528 180.62,-534 180.62,-534 180.62,-546 180.62,-546 180.62,-552 174.62,-558 168.62,-558"/>
<text text-anchor="middle" x="122.38" y="-542.5" font-family="Arial" font-size="10.00">R&#45;ELAN</text>
<text text-anchor="middle" x="122.38" y="-530.5" font-family="Arial" font-size="10.00">24x24x256, SiLU, Skip</text>
</g>
<!-- Concat1&#45;&gt;RELAN_neck1 -->
<g id="edge16" class="edge">
<title>Concat1&#45;&gt;RELAN_neck1</title>
<path fill="none" stroke="black" d="M122.38,-579.65C122.38,-579.65 122.38,-567.65 122.38,-567.65"/>
<polygon fill="black" stroke="black" points="122.38,-559.65 125.98,-567.65 122.38,-562.43 122.38,-567.65 122.38,-567.65 122.38,-567.65 122.38,-562.43 118.78,-567.65 122.38,-559.65"/>
</g>
<!-- A2_1 -->
<g id="node17" class="node">
<title>A2_1</title>
<path fill="palegreen" stroke="forestgreen" stroke-width="2" d="M153.62,-500C153.62,-500 91.12,-500 91.12,-500 85.12,-500 79.12,-494 79.12,-488 79.12,-488 79.12,-476 79.12,-476 79.12,-470 85.12,-464 91.12,-464 91.12,-464 153.62,-464 153.62,-464 159.62,-464 165.62,-470 165.62,-476 165.62,-476 165.62,-488 165.62,-488 165.62,-494 159.62,-500 153.62,-500"/>
<text text-anchor="middle" x="122.38" y="-484.5" font-family="Arial" font-size="10.00">A2</text>
<text text-anchor="middle" x="122.38" y="-472.5" font-family="Arial" font-size="10.00">24x24x256 (P4&#39;)</text>
</g>
<!-- RELAN_neck1&#45;&gt;A2_1 -->
<g id="edge17" class="edge">
<title>RELAN_neck1&#45;&gt;A2_1</title>
<path fill="none" stroke="black" d="M122.38,-521.65C122.38,-521.65 122.38,-510.05 122.38,-510.05"/>
<polygon fill="black" stroke="black" points="122.38,-502.05 125.98,-510.05 122.38,-504.83 122.38,-510.05 122.38,-510.05 122.38,-510.05 122.38,-504.83 118.78,-510.05 122.38,-502.05"/>
</g>
<!-- Upsample2 -->
<g id="node18" class="node">
<title>Upsample2</title>
<path fill="lavender" stroke="black" d="M200,-442C200,-442 160.75,-442 160.75,-442 154.75,-442 148.75,-436 148.75,-430 148.75,-430 148.75,-418 148.75,-418 148.75,-412 154.75,-406 160.75,-406 160.75,-406 200,-406 200,-406 206,-406 212,-412 212,-418 212,-418 212,-430 212,-430 212,-436 206,-442 200,-442"/>
<text text-anchor="middle" x="180.38" y="-426.5" font-family="Arial" font-size="10.00">Upsample</text>
<text text-anchor="middle" x="180.38" y="-414.5" font-family="Arial" font-size="10.00">48x48x256</text>
</g>
<!-- A2_1&#45;&gt;Upsample2 -->
<g id="edge18" class="edge">
<title>A2_1&#45;&gt;Upsample2</title>
<path fill="none" stroke="black" d="M157.19,-463.01C157.19,-463.01 157.19,-451.66 157.19,-451.66"/>
<polygon fill="black" stroke="black" points="157.19,-443.66 160.79,-451.66 157.19,-446.44 157.19,-451.66 157.19,-451.66 157.19,-451.66 157.19,-446.44 153.59,-451.66 157.19,-443.66"/>
</g>
<!-- Downsample -->
<g id="node23" class="node">
<title>Downsample</title>
<path fill="palegreen" stroke="forestgreen" stroke-width="2" d="M85.62,-442C85.62,-442 23.12,-442 23.12,-442 17.12,-442 11.12,-436 11.12,-430 11.12,-430 11.12,-418 11.12,-418 11.12,-412 17.12,-406 23.12,-406 23.12,-406 85.62,-406 85.62,-406 91.62,-406 97.62,-412 97.62,-418 97.62,-418 97.62,-430 97.62,-430 97.62,-436 91.62,-442 85.62,-442"/>
<text text-anchor="middle" x="54.38" y="-426.5" font-family="Arial" font-size="10.00">Downsample</text>
<text text-anchor="middle" x="54.38" y="-414.5" font-family="Arial" font-size="10.00">12x12x512 (P5&#39;)</text>
</g>
<!-- A2_1&#45;&gt;Downsample -->
<g id="edge24" class="edge">
<title>A2_1&#45;&gt;Downsample</title>
<path fill="none" stroke="black" d="M88.38,-463.01C88.38,-463.01 88.38,-452.05 88.38,-452.05"/>
<polygon fill="black" stroke="black" points="88.38,-444.05 91.98,-452.05 88.38,-446.84 88.38,-452.05 88.38,-452.05 88.38,-452.05 88.38,-446.84 84.78,-452.05 88.38,-444.05"/>
</g>
<!-- DDE_P4 -->
<g id="node25" class="node">
<title>DDE_P4</title>
<path fill="lightgreen" stroke="black" d="M160.75,-326C160.75,-326 84,-326 84,-326 78,-326 72,-320 72,-314 72,-314 72,-302 72,-302 72,-296 78,-290 84,-290 84,-290 160.75,-290 160.75,-290 166.75,-290 172.75,-296 172.75,-302 172.75,-302 172.75,-314 172.75,-314 172.75,-320 166.75,-326 160.75,-326"/>
<text text-anchor="middle" x="122.38" y="-310.5" font-family="Arial" font-size="10.00">DDE P4</text>
<text text-anchor="middle" x="122.38" y="-298.5" font-family="Arial" font-size="10.00">Softmax Cls + Reg</text>
</g>
<!-- A2_1&#45;&gt;DDE_P4 -->
<g id="edge26" class="edge">
<title>A2_1&#45;&gt;DDE_P4</title>
<path fill="none" stroke="black" d="M123.19,-463.05C123.19,-463.05 123.19,-335.62 123.19,-335.62"/>
<polygon fill="black" stroke="black" points="123.19,-327.62 126.79,-335.62 123.19,-330.4 123.19,-335.62 123.19,-335.62 123.19,-335.62 123.19,-330.4 119.59,-335.62 123.19,-327.62"/>
</g>
<!-- Concat2 -->
<g id="node20" class="node">
<title>Concat2</title>
<path fill="lavender" stroke="black" d="M261,-384C261,-384 221.75,-384 221.75,-384 215.75,-384 209.75,-378 209.75,-372 209.75,-372 209.75,-360 209.75,-360 209.75,-354 215.75,-348 221.75,-348 221.75,-348 261,-348 261,-348 267,-348 273,-354 273,-360 273,-360 273,-372 273,-372 273,-378 267,-384 261,-384"/>
<text text-anchor="middle" x="241.38" y="-368.5" font-family="Arial" font-size="10.00">Concat</text>
<text text-anchor="middle" x="241.38" y="-356.5" font-family="Arial" font-size="10.00">48x48x512</text>
</g>
<!-- Upsample2&#45;&gt;Concat2 -->
<g id="edge19" class="edge">
<title>Upsample2&#45;&gt;Concat2</title>
<path fill="none" stroke="black" d="M198.44,-405.65C198.44,-388.66 198.44,-366 198.44,-366 198.44,-366 200.05,-366 200.05,-366"/>
<polygon fill="black" stroke="black" points="208.05,-366 200.05,-369.6 205.27,-366 200.05,-366 200.05,-366 200.05,-366 205.27,-366 200.05,-362.4 208.05,-366"/>
</g>
<!-- P3_lat&#45;&gt;Concat2 -->
<g id="edge21" class="edge">
<title>P3_lat&#45;&gt;Concat2</title>
<path fill="none" stroke="black" d="M245.56,-869.73C245.56,-869.73 245.56,-393.61 245.56,-393.61"/>
<polygon fill="black" stroke="black" points="245.56,-385.61 249.16,-393.61 245.56,-388.39 245.56,-393.61 245.56,-393.61 245.56,-393.61 245.56,-388.39 241.96,-393.61 245.56,-385.61"/>
</g>
<!-- RELAN_neck2 -->
<g id="node21" class="node">
<title>RELAN_neck2</title>
<path fill="lavender" stroke="black" d="M291.62,-326C291.62,-326 199.12,-326 199.12,-326 193.12,-326 187.12,-320 187.12,-314 187.12,-314 187.12,-302 187.12,-302 187.12,-296 193.12,-290 199.12,-290 199.12,-290 291.62,-290 291.62,-290 297.62,-290 303.62,-296 303.62,-302 303.62,-302 303.62,-314 303.62,-314 303.62,-320 297.62,-326 291.62,-326"/>
<text text-anchor="middle" x="245.38" y="-310.5" font-family="Arial" font-size="10.00">R&#45;ELAN</text>
<text text-anchor="middle" x="245.38" y="-298.5" font-family="Arial" font-size="10.00">48x48x256, SiLU, Skip</text>
</g>
<!-- Concat2&#45;&gt;RELAN_neck2 -->
<g id="edge22" class="edge">
<title>Concat2&#45;&gt;RELAN_neck2</title>
<path fill="none" stroke="black" d="M241.38,-347.65C241.38,-347.65 241.38,-335.65 241.38,-335.65"/>
<polygon fill="black" stroke="black" points="241.38,-327.65 244.98,-335.65 241.38,-330.43 241.38,-335.65 241.38,-335.65 241.38,-335.65 241.38,-330.43 237.78,-335.65 241.38,-327.65"/>
</g>
<!-- A2_2 -->
<g id="node22" class="node">
<title>A2_2</title>
<path fill="palegreen" stroke="forestgreen" stroke-width="2" d="M263.62,-268C263.62,-268 201.12,-268 201.12,-268 195.12,-268 189.12,-262 189.12,-256 189.12,-256 189.12,-244 189.12,-244 189.12,-238 195.12,-232 201.12,-232 201.12,-232 263.62,-232 263.62,-232 269.62,-232 275.62,-238 275.62,-244 275.62,-244 275.62,-256 275.62,-256 275.62,-262 269.62,-268 263.62,-268"/>
<text text-anchor="middle" x="232.38" y="-252.5" font-family="Arial" font-size="10.00">A2</text>
<text text-anchor="middle" x="232.38" y="-240.5" font-family="Arial" font-size="10.00">48x48x256 (P3&#39;)</text>
</g>
<!-- RELAN_neck2&#45;&gt;A2_2 -->
<g id="edge23" class="edge">
<title>RELAN_neck2&#45;&gt;A2_2</title>
<path fill="none" stroke="black" d="M232.38,-289.65C232.38,-289.65 232.38,-278.05 232.38,-278.05"/>
<polygon fill="black" stroke="black" points="232.38,-270.05 235.98,-278.05 232.38,-272.83 232.38,-278.05 232.38,-278.05 232.38,-278.05 232.38,-272.83 228.78,-278.05 232.38,-270.05"/>
</g>
<!-- DDE_P3 -->
<g id="node24" class="node">
<title>DDE_P3</title>
<path fill="lightgreen" stroke="black" d="M245.75,-210C245.75,-210 169,-210 169,-210 163,-210 157,-204 157,-198 157,-198 157,-186 157,-186 157,-180 163,-174 169,-174 169,-174 245.75,-174 245.75,-174 251.75,-174 257.75,-180 257.75,-186 257.75,-186 257.75,-198 257.75,-198 257.75,-204 251.75,-210 245.75,-210"/>
<text text-anchor="middle" x="207.38" y="-194.5" font-family="Arial" font-size="10.00">DDE P3</text>
<text text-anchor="middle" x="207.38" y="-182.5" font-family="Arial" font-size="10.00">Softmax Cls + Reg</text>
</g>
<!-- A2_2&#45;&gt;DDE_P3 -->
<g id="edge25" class="edge">
<title>A2_2&#45;&gt;DDE_P3</title>
<path fill="none" stroke="black" d="M223.44,-231.01C223.44,-231.01 223.44,-219.66 223.44,-219.66"/>
<polygon fill="black" stroke="black" points="223.44,-211.66 227.04,-219.66 223.44,-214.44 223.44,-219.66 223.44,-219.66 223.44,-219.66 223.44,-214.44 219.84,-219.66 223.44,-211.66"/>
</g>
<!-- DDE_P5 -->
<g id="node26" class="node">
<title>DDE_P5</title>
<path fill="lightgreen" stroke="black" d="M88.75,-268C88.75,-268 12,-268 12,-268 6,-268 0,-262 0,-256 0,-256 0,-244 0,-244 0,-238 6,-232 12,-232 12,-232 88.75,-232 88.75,-232 94.75,-232 100.75,-238 100.75,-244 100.75,-244 100.75,-256 100.75,-256 100.75,-262 94.75,-268 88.75,-268"/>
<text text-anchor="middle" x="50.38" y="-252.5" font-family="Arial" font-size="10.00">DDE P5</text>
<text text-anchor="middle" x="50.38" y="-240.5" font-family="Arial" font-size="10.00">Softmax Cls + Reg</text>
</g>
<!-- Downsample&#45;&gt;DDE_P5 -->
<g id="edge27" class="edge">
<title>Downsample&#45;&gt;DDE_P5</title>
<path fill="none" stroke="black" d="M41.56,-405.05C41.56,-405.05 41.56,-277.62 41.56,-277.62"/>
<polygon fill="black" stroke="black" points="41.56,-269.62 45.16,-277.62 41.56,-272.4 41.56,-277.62 41.56,-277.62 41.56,-277.62 41.56,-272.4 37.96,-277.62 41.56,-269.62"/>
</g>
<!-- ROI -->
<g id="node27" class="node">
<title>ROI</title>
<path fill="khaki" stroke="black" d="M137.38,-152C137.38,-152 107.38,-152 107.38,-152 101.38,-152 95.38,-146 95.38,-140 95.38,-140 95.38,-128 95.38,-128 95.38,-122 101.38,-116 107.38,-116 107.38,-116 137.38,-116 137.38,-116 143.38,-116 149.38,-122 149.38,-128 149.38,-128 149.38,-140 149.38,-140 149.38,-146 143.38,-152 137.38,-152"/>
<text text-anchor="middle" x="122.38" y="-136.5" font-family="Arial" font-size="10.00">RoIAlign</text>
<text text-anchor="middle" x="122.38" y="-124.5" font-family="Arial" font-size="10.00">7x7x256</text>
</g>
<!-- DDE_P3&#45;&gt;ROI -->
<g id="edge28" class="edge">
<title>DDE_P3&#45;&gt;ROI</title>
<path fill="none" stroke="black" d="M164.5,-173.65C164.5,-156.66 164.5,-134 164.5,-134 164.5,-134 158.99,-134 158.99,-134"/>
<polygon fill="black" stroke="black" points="150.99,-134 158.99,-130.4 153.77,-134 158.99,-134 158.99,-134 158.99,-134 153.77,-134 158.99,-137.6 150.99,-134"/>
</g>
<!-- DDE_P4&#45;&gt;ROI -->
<g id="edge29" class="edge">
<title>DDE_P4&#45;&gt;ROI</title>
<path fill="none" stroke="black" d="M125.06,-289.71C125.06,-289.71 125.06,-161.53 125.06,-161.53"/>
<polygon fill="black" stroke="black" points="125.06,-153.53 128.66,-161.53 125.06,-156.31 125.06,-161.53 125.06,-161.53 125.06,-161.53 125.06,-156.31 121.46,-161.53 125.06,-153.53"/>
</g>
<!-- DDE_P5&#45;&gt;ROI -->
<g id="edge30" class="edge">
<title>DDE_P5&#45;&gt;ROI</title>
<path fill="none" stroke="black" d="M84.06,-231.62C84.06,-198.91 84.06,-134 84.06,-134 84.06,-134 85.72,-134 85.72,-134"/>
<polygon fill="black" stroke="black" points="93.72,-134 85.72,-137.6 90.94,-134 85.72,-134 85.72,-134 85.72,-134 90.94,-134 85.72,-130.4 93.72,-134"/>
</g>
<!-- MLDR_out -->
<g id="node28" class="node">
<title>MLDR_out</title>
<path fill="khaki" stroke="black" d="M160,-94C160,-94 84.75,-94 84.75,-94 78.75,-94 72.75,-88 72.75,-82 72.75,-82 72.75,-70 72.75,-70 72.75,-64 78.75,-58 84.75,-58 84.75,-58 160,-58 160,-58 166,-58 172,-64 172,-70 172,-70 172,-82 172,-82 172,-88 166,-94 160,-94"/>
<text text-anchor="middle" x="122.38" y="-78.5" font-family="Arial" font-size="10.00">MLDR</text>
<text text-anchor="middle" x="122.38" y="-66.5" font-family="Arial" font-size="10.00">Sigmoid Cls + Reg</text>
</g>
<!-- ROI&#45;&gt;MLDR_out -->
<g id="edge31" class="edge">
<title>ROI&#45;&gt;MLDR_out</title>
<path fill="none" stroke="black" d="M122.38,-115.65C122.38,-115.65 122.38,-103.65 122.38,-103.65"/>
<polygon fill="black" stroke="black" points="122.38,-95.65 125.98,-103.65 122.38,-98.43 122.38,-103.65 122.38,-103.65 122.38,-103.65 122.38,-98.43 118.78,-103.65 122.38,-95.65"/>
</g>
<!-- SoftNMS -->
<g id="node29" class="node">
<title>SoftNMS</title>
<path fill="peachpuff" stroke="sienna" d="M140.12,-36C140.12,-36 104.62,-36 104.62,-36 98.62,-36 92.62,-30 92.62,-24 92.62,-24 92.62,-12 92.62,-12 92.62,-6 98.62,0 104.62,0 104.62,0 140.12,0 140.12,0 146.12,0 152.12,-6 152.12,-12 152.12,-12 152.12,-24 152.12,-24 152.12,-30 146.12,-36 140.12,-36"/>
<text text-anchor="middle" x="122.38" y="-14.5" font-family="Arial" font-size="10.00">Soft&#45;NMS</text>
</g>
<!-- MLDR_out&#45;&gt;SoftNMS -->
<g id="edge32" class="edge">
<title>MLDR_out&#45;&gt;SoftNMS</title>
<path fill="none" stroke="black" d="M122.38,-57.65C122.38,-57.65 122.38,-45.65 122.38,-45.65"/>
<polygon fill="black" stroke="black" points="122.38,-37.65 125.98,-45.65 122.38,-40.43 122.38,-45.65 122.38,-45.65 122.38,-45.65 122.38,-40.43 118.78,-45.65 122.38,-37.65"/>
</g>
</g>
</svg>
